<svg xmlns="http://www.w3.org/2000/svg" xmlns:xlink="http://www.w3.org/1999/xlink" width="106" height="60" viewBox="0 0 106 60">
  <defs>
    <linearGradient id="a" data-name="Безымянный градиент 12" x1="62.11" y1="21.43" x2="62.08" y2="19.37" gradientUnits="userSpaceOnUse">
      <stop offset="0" stop-color="#8a0"/>
      <stop offset="1" stop-color="#a6d000"/>
    </linearGradient>
    <linearGradient id="b" x1="11.02" y1="60.11" x2="10.99" y2="58.23" xlink:href="#a"/>
    <linearGradient id="c" x1="12.02" y1="56.86" x2="11.99" y2="54.89" xlink:href="#a"/>
    <linearGradient id="d" x1="13.03" y1="53.52" x2="13" y2="51.56" xlink:href="#a"/>
    <linearGradient id="e" x1="63.17" y1="17.93" x2="63.14" y2="15.92" xlink:href="#a"/>
    <linearGradient id="f" x1="66.16" y1="8.02" x2="66.13" y2="6.15" xlink:href="#a"/>
    <linearGradient id="g" x1="65.19" y1="11.23" x2="65.16" y2="9.32" xlink:href="#a"/>
    <linearGradient id="h" x1="95.48" y1="1.85" x2="95.45" y2="-0.1" xlink:href="#a"/>
    <linearGradient id="i" x1="14.04" y1="50.19" x2="14.01" y2="48.22" xlink:href="#a"/>
    <linearGradient id="j" x1="64.19" y1="14.54" x2="64.16" y2="12.57" xlink:href="#a"/>
    <linearGradient id="k" x1="67.1" y1="4.89" x2="67.08" y2="3.06" xlink:href="#a"/>
    <linearGradient id="l" x1="68.05" y1="1.85" x2="68.02" y2="-0.12" xlink:href="#a"/>
    <linearGradient id="m" x1="89.6" y1="11.24" x2="89.57" y2="9.34" xlink:href="#a"/>
    <linearGradient id="n" x1="87.55" y1="14.54" x2="87.52" y2="12.6" xlink:href="#a"/>
    <linearGradient id="o" x1="93.53" y1="4.9" x2="93.5" y2="3.08" xlink:href="#a"/>
    <linearGradient id="p" x1="91.59" y1="8.02" x2="91.57" y2="6.17" xlink:href="#a"/>
    <linearGradient id="q" x1="85.45" y1="17.93" x2="85.42" y2="15.95" xlink:href="#a"/>
    <linearGradient id="r" x1="16.06" y1="43.52" x2="16.03" y2="41.55" xlink:href="#a"/>
    <linearGradient id="s" x1="17.07" y1="40.18" x2="17.04" y2="38.22" xlink:href="#a"/>
    <linearGradient id="t" x1="15.05" y1="46.85" x2="15.02" y2="44.89" xlink:href="#a"/>
    <linearGradient id="u" x1="83.28" y1="21.43" x2="83.25" y2="19.39" xlink:href="#a"/>
    <linearGradient id="v" x1="65.87" y1="60.34" x2="65.33" y2="22.85" xlink:href="#a"/>
    <linearGradient id="w" x1="27.03" y1="36.72" x2="26.5" y2="-0.31" xlink:href="#a"/>
  </defs>
  <title>logo</title>
  <g>
    <polygon points="51.49 21.27 72.17 21.28 72.7 19.52 52.02 19.51 51.49 21.27" fill="url(#a)"/>
    <polygon points="0.43 59.96 21.11 59.97 21.59 58.38 0.91 58.37 0.43 59.96" fill="url(#b)"/>
    <polygon points="1.41 56.7 22.09 56.72 22.6 55.05 1.92 55.04 1.41 56.7" fill="url(#c)"/>
    <polygon points="2.42 53.37 23.1 53.38 23.61 51.71 2.93 51.7 2.42 53.37" fill="url(#d)"/>
    <polygon points="73.75 16.08 53.07 16.07 52.55 17.78 73.23 17.79 73.75 16.08" fill="url(#e)"/>
    <polygon points="76.73 6.3 56.05 6.29 55.57 7.87 76.25 7.88 76.73 6.3" fill="url(#f)"/>
    <polygon points="75.76 9.47 55.08 9.46 54.59 11.08 75.27 11.09 75.76 9.47" fill="url(#g)"/>
    <polygon points="85.95 0.04 84.92 1.71 104.95 1.72 106 0.05 85.95 0.04" fill="url(#h)"/>
    <polygon points="3.43 50.03 24.11 50.05 24.62 48.38 3.94 48.37 3.43 50.03" fill="url(#i)"/>
    <polygon points="74.77 12.73 54.09 12.72 53.58 14.38 74.27 14.39 74.77 12.73" fill="url(#j)"/>
    <polygon points="77.67 3.22 56.98 3.21 56.52 4.74 77.2 4.75 77.67 3.22" fill="url(#k)"/>
    <polygon points="78.63 0.04 57.95 0.03 57.44 1.7 78.13 1.71 78.63 0.04" fill="url(#l)"/>
    <polygon points="79.12 11.09 99.03 11.1 100.05 9.48 80.12 9.47 79.12 11.09" fill="url(#m)"/>
    <polygon points="77.08 14.39 96.95 14.4 98 12.74 78.1 12.73 77.08 14.39" fill="url(#n)"/>
    <polygon points="83.04 4.75 103.03 4.76 104 3.23 83.99 3.22 83.04 4.75" fill="url(#o)"/>
    <polygon points="81.11 7.88 101.06 7.89 102.05 6.31 82.08 6.3 81.11 7.88" fill="url(#p)"/>
    <polygon points="74.97 17.79 94.81 17.8 95.89 16.09 76.03 16.08 74.97 17.79" fill="url(#q)"/>
    <polygon points="5.45 43.36 26.13 43.38 26.64 41.71 5.96 41.7 5.45 43.36" fill="url(#r)"/>
    <polygon points="6.46 40.03 27.14 40.04 27.65 38.37 6.97 38.36 6.46 40.03" fill="url(#s)"/>
    <polygon points="4.44 46.7 25.12 46.71 25.63 45.04 4.95 45.03 4.44 46.7" fill="url(#t)"/>
    <polygon points="72.81 21.28 92.61 21.29 93.72 19.53 73.9 19.52 72.81 21.28" fill="url(#u)"/>
    <polygon points="71.71 23.07 71.55 23.33 71.63 23.07 50.94 23.06 39.71 59.98 60.39 59.99 68.21 34.29 67.97 59.99 89.34 60 87.73 29.03 91.48 23.08 71.71 23.07" fill="url(#v)"/>
    <polygon points="53.23 0.02 4.83 0 0 15.66 13.84 15.67 7.47 36.69 28.15 36.7 34.52 15.68 48.41 15.69 53.23 0.02" fill="url(#w)"/>
  </g>
</svg>
